<svg xmlns="http://www.w3.org/2000/svg" viewBox="0 0 1200 760">
  <rect width="1200" height="760" fill="#ccd6dc"/>
  <rect x="75" y="65" width="1050" height="630" rx="38" fill="#f8fafb"/>
  <rect x="115" y="110" width="250" height="540" rx="26" fill="#27333a"/>
  <rect x="405" y="115" width="660" height="80" rx="22" fill="#e8eef1"/>
  <rect x="445" y="145" width="210" height="18" rx="9" fill="#5c6d76"/>
  <rect x="405" y="235" width="205" height="370" rx="24" fill="#f0dfd7"/>
  <rect x="630" y="235" width="205" height="370" rx="24" fill="#e7ece4"/>
  <rect x="855" y="235" width="210" height="370" rx="24" fill="#dce5ea"/>
  <g fill="#fff" opacity=".9"><rect x="145" y="145" width="130" height="18" rx="9"/><rect x="145" y="235" width="160" height="14" rx="7" opacity=".5"/><rect x="145" y="280" width="115" height="14" rx="7" opacity=".35"/></g>
  <g fill="#fffaf6"><rect x="430" y="280" width="155" height="90" rx="15"/><rect x="655" y="325" width="155" height="115" rx="15"/><rect x="880" y="270" width="160" height="130" rx="15"/></g>
</svg>
