<svg xmlns="http://www.w3.org/2000/svg" viewBox="0 0 1200 760">
  <rect width="1200" height="760" fill="#dfe6ea"/>
  <rect x="74" y="64" width="1052" height="632" rx="40" fill="#f9fbfc"/>
  <rect x="116" y="112" width="968" height="82" rx="22" fill="#e8eef1"/>
  <rect x="160" y="143" width="278" height="18" rx="9" fill="#576a74"/>
  <rect x="920" y="139" width="44" height="14" rx="7" fill="#91a2ab"/>
  <rect x="980" y="139" width="44" height="14" rx="7" fill="#91a2ab"/>
  <path d="M600 228 l76 34 v96c0 62-40 123-76 146-36-23-76-84-76-146v-96z" fill="#27333a"/>
  <path d="M600 270c34 0 61 27 61 61s-27 61-61 61-61-27-61-61 27-61 61-61z" fill="#f6f8f9" opacity=".97"/>
  <path d="M581 336 l20 20 34-43" fill="none" stroke="#c96442" stroke-width="12" stroke-linecap="round" stroke-linejoin="round"/>
  <g stroke="#6e7f88" stroke-width="8" stroke-linecap="round" fill="none">
    <path d="M430 320 H332"/>
    <path d="M430 465 H332"/>
    <path d="M770 320 H868"/>
    <path d="M770 465 H868"/>
  </g>
  <g>
    <rect x="170" y="270" width="190" height="96" rx="24" fill="#27333a"/>
    <rect x="170" y="414" width="190" height="96" rx="24" fill="#27333a"/>
    <rect x="840" y="270" width="190" height="96" rx="24" fill="#27333a"/>
    <rect x="840" y="414" width="190" height="96" rx="24" fill="#27333a"/>
  </g>
  <g fill="#fffaf6" opacity=".88">
    <rect x="200" y="302" width="88" height="14" rx="7"/><rect x="200" y="336" width="122" height="14" rx="7" opacity=".55"/>
    <rect x="200" y="446" width="88" height="14" rx="7"/><rect x="200" y="480" width="122" height="14" rx="7" opacity=".55"/>
    <rect x="870" y="302" width="88" height="14" rx="7"/><rect x="870" y="336" width="122" height="14" rx="7" opacity=".55"/>
    <rect x="870" y="446" width="88" height="14" rx="7"/><rect x="870" y="480" width="122" height="14" rx="7" opacity=".55"/>
  </g>
  <rect x="426" y="576" width="348" height="56" rx="28" fill="#c96442" opacity=".95"/>
  <text x="600" y="612" text-anchor="middle" font-family="Arial,sans-serif" font-size="20" letter-spacing="4" fill="#fffdf8">JWT · MICROSERVICES · TCC</text>
</svg>
