<svg xmlns="http://www.w3.org/2000/svg" viewBox="0 0 1200 760">
  <rect width="1200" height="760" fill="#eee6dc"/>
  <rect x="80" y="70" width="1040" height="620" rx="40" fill="#fffdf8" stroke="#d7ccbf" stroke-width="3"/>
  <rect x="120" y="118" width="250" height="520" rx="26" fill="#26211d"/>
  <circle cx="164" cy="162" r="18" fill="#c96442"/>
  <rect x="200" y="146" width="112" height="18" rx="9" fill="#f5efe7" opacity=".92"/>
  <rect x="150" y="232" width="148" height="14" rx="7" fill="#f5efe7" opacity=".55"/>
  <rect x="150" y="276" width="120" height="14" rx="7" fill="#f5efe7" opacity=".34"/>
  <rect x="405" y="120" width="665" height="92" rx="24" fill="#f5efe7"/>
  <rect x="444" y="149" width="318" height="18" rx="9" fill="#5a524b"/>
  <rect x="405" y="250" width="310" height="182" rx="26" fill="#dce4db"/>
  <rect x="760" y="250" width="310" height="182" rx="26" fill="#f0d8cd"/>
  <rect x="405" y="462" width="665" height="176" rx="26" fill="#f5efe7"/>
  <path d="M444 592 C530 492 620 602 708 522 S868 564 1010 496" fill="none" stroke="#c96442" stroke-width="12" stroke-linecap="round"/>
  <circle cx="577" cy="541" r="10" fill="#26211d"/>
  <circle cx="704" cy="523" r="10" fill="#26211d"/>
  <circle cx="867" cy="537" r="10" fill="#26211d"/>
</svg>
