<svg xmlns="http://www.w3.org/2000/svg" viewBox="0 0 1200 760">
  <rect width="1200" height="760" fill="#ece5da"/>
  <rect x="78" y="66" width="1044" height="628" rx="40" fill="#fffdf8"/>
  <rect x="126" y="114" width="286" height="540" rx="28" fill="#2d2925"/>
  <text x="170" y="184" font-family="Georgia,serif" font-size="70" fill="#fff8ef">UC</text>
  <text x="170" y="228" font-family="Arial,sans-serif" font-size="20" letter-spacing="4" fill="#d7ccc0">AI SOLVER</text>
  <rect x="170" y="292" width="160" height="14" rx="7" fill="#fff8ef" opacity=".7"/>
  <rect x="170" y="328" width="118" height="14" rx="7" fill="#fff8ef" opacity=".35"/>
  <rect x="448" y="112" width="622" height="86" rx="22" fill="#f5efe7"/>
  <rect x="488" y="145" width="238" height="18" rx="9" fill="#5b554e"/>
  <rect x="448" y="236" width="622" height="386" rx="28" fill="#f5efe7"/>
  <rect x="506" y="278" width="466" height="300" rx="20" fill="#fffdf8" stroke="#d7ccbf" stroke-width="3"/>
  <g stroke="#d7ccbf" stroke-width="3">
    <path d="M564 278V578M622 278V578M680 278V578M738 278V578M796 278V578M854 278V578M912 278V578"/>
    <path d="M506 338H972M506 398H972M506 458H972M506 518H972"/>
  </g>
  <path d="M535 545 C575 510 604 470 644 440 S724 377 768 360 S845 330 930 314" fill="none" stroke="#c96442" stroke-width="12" stroke-linecap="round"/>
  <g fill="#26211d">
    <circle cx="536" cy="545" r="12"/><circle cx="645" cy="440" r="12"/><circle cx="768" cy="360" r="12"/><circle cx="930" cy="314" r="12"/>
  </g>
  <rect x="858" y="135" width="170" height="38" rx="19" fill="#dce4db"/>
  <text x="943" y="159" text-anchor="middle" font-family="Arial,sans-serif" font-size="16" letter-spacing="2" fill="#415b49">CV + A*</text>
</svg>
